<svg xmlns="http://www.w3.org/2000/svg" viewBox="0 0 42 42" role="presentation" color="#008388" height="41"><g fill="#008388" fill-rule="nonzero" stroke="none" stroke-width="1" transform="translate(-1030 -521) translate(1030 521)"><path d="M18.49.543l.112.052a5.73 5.73 0 012.905 3.167 5.62 5.62 0 01-.187 4.384 5.757 5.757 0 01-3.28 2.958 5.879 5.879 0 01-4.424-.182l-.112-.05a5.73 5.73 0 01-2.905-3.166 5.628 5.628 0 01.186-4.388 5.757 5.757 0 013.28-2.957 5.865 5.865 0 014.424.182zm-.641 1.642c-.055-.027-.074-.035-.077-.038a4.144 4.144 0 00-3.124-.127 4.01 4.01 0 00-2.28 2.056c-.028.055-.034.066-.036.074a3.85 3.85 0 00-.096 2.935 3.979 3.979 0 002.023 2.197c.058.027.071.036.077.038a4.144 4.144 0 003.124.127 4.01 4.01 0 002.28-2.056c.025-.055.033-.066.036-.074a3.85 3.85 0 00.096-2.935 3.97 3.97 0 00-2.023-2.197zM20.036 20.956l4.66 2.177c1.484.692 2.128 1.745 2.182 2.742.025.43-.06.846-.238 1.218a2.598 2.598 0 01-.764.948c-.813.637-2.048.863-3.381.24l-5.6-2.615-.363-.317-1.306-1.998-2.33 5.054c-.145.314-.266.543-.375.75-.277.523-.452.854-.269 1.358l.011.039 3.261 10.288.362 1.146-1.194-.003-8.972-.016h-.545l-.238-.49-3.8-7.816C.492 32.34.1 30.329.032 28.35c-.066-1.896.167-3.8.761-5.09l4-8.679c.761-1.653 2.007-2.711 3.425-3.235a6.37 6.37 0 012.568-.375c.866.05 1.728.265 2.522.637a6.636 6.636 0 013.442 3.685l3.285 5.663zm-4.832-4.834l-.066-.14a4.915 4.915 0 00-2.56-2.778 5.151 5.151 0 00-1.886-.477 4.675 4.675 0 00-1.87.27c-1.005.372-1.892 1.13-2.44 2.318l-4 8.678c-.476 1.036-.66 2.651-.605 4.3.06 1.75.389 3.494.925 4.593l4.206 9.08 7.056.016L10.62 31.12h-.002c-.455-1.243-.137-1.844.364-2.792.11-.21.233-.441.334-.661l2.99-6.488.66-1.433.862 1.32 2.029 3.103 5.374 2.51c.666.312 1.232.238 1.575-.032a.904.904 0 00.257-.314.755.755 0 00.074-.364c-.022-.402-.367-.865-1.17-1.24l-4.914-2.296-.391-.353-3.458-5.958zM36.56 36.18a6.419 6.419 0 01-3.373 3.59 6.43 6.43 0 01-4.915.16h-.003l-.035-.013a6.414 6.414 0 01-3.56-3.346 6.375 6.375 0 01-.175-4.878v-.003l.014-.033c.69-1.824 1.3-2.224 1.968-2.657.523-.341 1.098-.713 1.988-3.07a3.84 3.84 0 011.3-1.725 4.42 4.42 0 011.534-.733l.66-1.747.31-.819.812.306 3.932 1.475.824.308-.312.824-.66 1.748a4.45 4.45 0 01.665 1.56 3.828 3.828 0 01-.158 2.149c-.887 2.354-.704 3.012-.534 3.613.21.763.408 1.463-.282 3.29zm-4.085 1.984a4.66 4.66 0 002.447-2.605c.485-1.287.365-1.722.23-2.193-.243-.868-.509-1.816.584-4.71.142-.38.164-.783.084-1.171a2.724 2.724 0 00-.607-1.202l-.337-.397.183-.485.52-1.378-2.294-.86-.523 1.384-.183.485-.507.074a2.745 2.745 0 00-1.26.51 2.1 2.1 0 00-.711.934c-1.093 2.891-1.92 3.431-2.678 3.925-.41.267-.788.512-1.276 1.802l-.013.033a4.645 4.645 0 00.128 3.533 4.664 4.664 0 002.588 2.431l.035.014a4.696 4.696 0 003.59-.124z"></path><path d="M24.16 33.537c-.063-.025-.337-.13-.562-.22a4.165 4.165 0 01-.342-.15l-.003-.002-.019-.011h-.003a3.734 3.734 0 01-1.678-1.858c-.337-.816-.361-1.742.071-2.58l.003-.002.008-.014v-.003l.578-1.1 1.547.82-.578 1.099h-.003l-.002.008c-.178.345-.16.741-.009 1.105.167.402.485.758.88.967v.003l.01.006c.008.002.088.036.192.08.203.082.465.184.526.206l-.616 1.646zm.87-9.902a4.404 4.404 0 011.873-.587 4.538 4.538 0 011.952.28l2.344.888-.616 1.645-2.344-.887a2.744 2.744 0 00-1.2-.17 2.666 2.666 0 00-1.133.352l-.876-1.521zM39.615 26.82c.6-.022 1.164.287 1.588.808.35.424.619 1.011.726 1.656.024.155.04.312.046.469.02.54-.09 1.039-.295 1.427-.266.496-.682.83-1.21.918-.06.011-.13.017-.206.02-.6.021-1.163-.287-1.588-.808-.35-.425-.619-1.012-.725-1.656a3.823 3.823 0 01-.047-.469c-.02-.54.09-1.039.296-1.428.265-.496.681-.829 1.21-.917.06-.011.129-.017.205-.02zm.241 1.93a1.12 1.12 0 00-.126-.138c-.06.124-.09.3-.082.512.003.072.011.152.025.243.055.33.183.623.35.821.05.06.093.11.126.138.06-.124.09-.3.082-.513a2.207 2.207 0 00-.024-.242 1.775 1.775 0 00-.35-.821z"></path><path d="M39.6097784 30.5519685L36.8006519 33.7240157 35.4946545 32.5527559 38.303781 29.3807087z"></path></g></svg>