<svg xmlns="http://www.w3.org/2000/svg" viewBox="0 0 48 48" role="presentation" color="#247bbf" height="41"><g fill="#247bbf"><path d="M37 13c3.309 0 6-2.916 6-6.5S40.309 0 37 0s-6 2.916-6 6.5 2.691 6.5 6 6.5zm0-11c2.206 0 4 2.019 4 4.5S39.206 11 37 11s-4-2.019-4-4.5S34.794 2 37 2zm-6 28a1 1 0 00-1 1v1c-.909 0-1.758-.56-2.067-1.36a1 1 0 00-1.866.72C26.675 32.938 28.256 34 30 34v13a1 1 0 002 0V31a1 1 0 00-1-1zm6 3a1 1 0 00-1 1v13a1 1 0 002 0V34a1 1 0 00-1-1z"></path><path d="M40.968 15h-7.936a7.091 7.091 0 00-6.088 3.494 1 1 0 101.724 1.012A5.083 5.083 0 0133.032 17h7.936C43.695 17 46 19.29 46 22v7.989c0 1.09-.916 2.011-2 2.011v-9a1 1 0 00-2 0v24a1 1 0 002 0V34c2.206 0 4-1.8 4-4.011V22c0-3.86-3.155-7-7.032-7zM11 13c3.309 0 6-2.916 6-6.5S14.309 0 11 0 5 2.916 5 6.5 7.691 13 11 13zm0-11c2.206 0 4 2.019 4 4.5S13.206 11 11 11 7 8.981 7 6.5 8.794 2 11 2zm0 31a1 1 0 00-1 1v13a1 1 0 002 0V34a1 1 0 00-1-1z"></path><path d="M7.032 17h7.936c1.766 0 3.432.961 4.346 2.509a1.001 1.001 0 001.722-1.018C19.763 16.338 17.438 15 14.968 15H7.032C3.155 15 0 18.14 0 22v7.989A4.01 4.01 0 004 34v13a1 1 0 002 0V23a1 1 0 00-2 0v9c-1.084 0-2-.92-2-2.011V22c0-2.71 2.305-5 5.032-5z"></path><path d="M12.414 24H31a1 1 0 000-2H12.414l1.293-1.293a1 1 0 10-1.414-1.414l-3 3a1 1 0 00-.216 1.09 1 1 0 00.216.324l3 3a.997.997 0 001.414 0 1 1 0 000-1.414z"></path><path d="M38.923 26.618a1 1 0 00-.216-.325l-3-3a1 1 0 10-1.414 1.414L35.586 26H17a1 1 0 00-1 1v20a1 1 0 002 0V34c1.744 0 3.325-1.061 3.933-2.64a1 1 0 10-1.866-.72C19.758 31.44 18.909 32 18 32v-4h17.586l-1.293 1.293a1 1 0 101.414 1.414l3-3a1 1 0 00.216-1.09z"></path></g></svg>