<svg xmlns="http://www.w3.org/2000/svg" role="presentation" color="#C5096A" height="41" viewBox="0 0 61 61"><g fill="none" fill-rule="evenodd"><path fill="#C5096A" d="M29.824 58.122h-.09l-.088-.002a18.594 18.594 0 01-.407-.01l-.183-.006c-.13-.005-.26-.012-.393-.019l-.196-.01c-.125-.007-.25-.016-.376-.026l-.046-.003-.507-9.618a1.086 1.086 0 00-1.086-1.03h-1.996a.46.46 0 01-.46-.46v-3.537c0-3.509 2.82-6.373 6.306-6.385 1.68 0 3.26.653 4.45 1.84a6.254 6.254 0 011.854 4.463v3.076c0 .552-.45 1.001-1.001 1.001H34.21a1.09 1.09 0 00-1.085 1.017l-.625 9.614c-.107.008-.213.017-.32.024l-.221.015-.375.021-.77.03c-.14.003-.281.005-.425.005l-.153.002c-.138.002-.274 0-.412-.002m.448-23.344a3.08 3.08 0 01-3.077-3.078c0-.337.056-.64.164-.929.322-.86 1.106-1.56 2.21-2.495.248-.209.502-.425.756-.649 1.174.913 3.025 2.587 3.025 4.073a3.082 3.082 0 01-3.078 3.078M19.879 11.216a3.955 3.955 0 013.95 3.95c0 1.098-.487 3.182-3.743 4.855-1.584-.813-4.157-2.498-4.157-4.855a3.955 3.955 0 013.95-3.95m20.903 8.188l-.182.028-.182-.028c-2.254-.34-3.77-2.044-3.77-4.239a3.955 3.955 0 013.952-3.95 3.955 3.955 0 013.95 3.95c0 .275-.023.541-.07.8-.32 1.8-1.726 3.14-3.698 3.44m11.796 23.741L50.6 37.861a3.335 3.335 0 001.242-.265 3.334 3.334 0 001.826-4.255l-2.5-6.793-.032-.06c-1.84-3.392-3.798-5.157-6.92-6.21.334-.253.642-.535.917-.843 1.042-1.166 1.592-2.642 1.592-4.269A6.133 6.133 0 0040.6 9.041a6.132 6.132 0 00-6.125 6.125c0 1.627.55 3.103 1.592 4.27.29.323.615.62.969.88-2.76.99-4.613 2.515-6.878 4.54a7.394 7.394 0 00-.32-.197c-1.652-1.404-3.127-1.947-5.005-2.638-.695-.256-1.475-.543-2.35-.906a9.781 9.781 0 001.854-1.646c1.107-1.29 1.668-2.738 1.668-4.302a6.133 6.133 0 00-6.126-6.126 6.133 6.133 0 00-6.125 6.126c0 2.245 1.36 4.31 3.936 5.981a117.436 117.436 0 01-4.492 1.922 7.026 7.026 0 00-4.045 4.296L6.436 35.51a3.186 3.186 0 00.155 2.413 3.192 3.192 0 001.796 1.62 3.189 3.189 0 002.492-.128 3.188 3.188 0 001.646-1.875l1.049-3.146 1.479 19.315C6.983 48.534 2.175 39.75 2.175 30.15a27.893 27.893 0 018.193-19.781 27.918 27.918 0 018.893-5.996A27.797 27.797 0 0130.15 2.175a27.884 27.884 0 0119.781 8.193 27.885 27.885 0 018.194 19.781 27.91 27.91 0 01-4.133 14.643 28.221 28.221 0 01-9.014 9.085l.829-9.262h5.752a1.089 1.089 0 001.019-1.469m5.352-24.732a30.033 30.033 0 00-6.461-9.584A30.05 30.05 0 0030.149 0a29.96 29.96 0 00-11.735 2.37A30.028 30.028 0 008.83 8.831 30.037 30.037 0 000 30.151a30.152 30.152 0 0015.778 26.51 1.086 1.086 0 001.603-1.039L15.33 28.85a1.087 1.087 0 10-2.116-.26l-2.754 8.26a1.028 1.028 0 01-.531.605 1.021 1.021 0 01-.802.041 1.03 1.03 0 01-.63-1.3l2.717-8.143a4.854 4.854 0 012.795-2.967c1.415-.569 3.612-1.49 6.076-2.65 1.632.755 2.946 1.24 4.004 1.628 1.81.667 3.007 1.107 4.382 2.29l-.31.262c-1.546 1.307-3.144 2.66-3.144 5.084 0 1.503.637 2.917 1.756 3.916A8.563 8.563 0 0021.82 43.4v3.537a2.637 2.637 0 002.634 2.634h.964l.433 8.225a27.84 27.84 0 01-4.794-1.182 1.085 1.085 0 00-1.33 1.506c.127.261.349.457.623.551a30.128 30.128 0 006.54 1.454l.227.023c.144.015.289.028.435.04l.126.011c.17.014.343.026.515.037l.173.011c.148.008.296.016.447.022l.102.005c.178.007.355.012.534.016l.146.003c.187.004.37.007.555.007.179 0 .358-.003.537-.006l.17-.003.384-.01.174-.008c.17-.007.34-.015.51-.025l.16-.01.38-.027.192-.015c.138-.01.274-.023.41-.037l.12-.01c.15-.016.3-.032.479-.053a30.225 30.225 0 005.94-1.31 1.09 1.09 0 00.693-1.374 1.09 1.09 0 00-1.374-.692 27.897 27.897 0 01-4.23 1.036l.533-8.185h.375a3.18 3.18 0 003.176-3.177V43.32a8.423 8.423 0 00-2.494-6.007 8.447 8.447 0 00-2.487-1.723 5.238 5.238 0 001.726-3.89c0-1.627-1.007-3.335-2.993-5.074a18.606 18.606 0 00-.562-.473c2.638-2.34 4.584-3.818 8.634-4.517 2.316.39 3.924.948 5.21 1.81 1.288.862 2.33 2.102 3.37 4l2.448 6.66a1.163 1.163 0 01-.638 1.486 1.164 1.164 0 01-1.38-.365l-2.956-7.913a1.079 1.079 0 00-.567-.608 1.08 1.08 0 00-.833-.029 1.075 1.075 0 00-.608.567c-.121.265-.131.56-.03.833l2.229 5.96c.002.127.026.252.072.372l.5 1.306c.068.176.152.35.239.491l2.332 6.235h-5.18c-.566 0-1.031.426-1.082.991l-1.103 12.335a1.088 1.088 0 001.592 1.058 30.285 30.285 0 0011.627-10.89A30.095 30.095 0 0060.3 30.15c0-4.07-.797-8.019-2.37-11.736"></path></g></svg>