<svg xmlns="http://www.w3.org/2000/svg" viewBox="0 0 48 58" role="presentation" color="#3A8535" height="41"><path fill="#3A8535" fill-rule="evenodd" d="M23.342 0c10.266 0 18.617 8.35 18.617 18.617 0 5.28-2.238 10.302-6.156 13.831l4.249 17.37c.081.335.028.68-.15.976a1.277 1.277 0 01-.794.581 1.303 1.303 0 01-1.56-.944l-4.309-17.62a1.298 1.298 0 01.23-1.755 15.99 15.99 0 005.913-12.439c0-8.844-7.196-16.04-16.04-16.04-8.74 0-15.87 7.026-16.038 15.725l-.003.315.006.45.012.22c.007.16 0 .26-.025.35l.007 2.131c0 .2-.047.398-.136.577l-4.062 8.122 3.317 1.106c.527.176.88.667.88 1.223v7.376h9.74c.624 0 1.156.444 1.268 1.057l1.575 8.665a1.29 1.29 0 01-2.001 1.291 1.289 1.289 0 01-.534-.83l-1.384-7.607H6.013a1.29 1.29 0 01-1.288-1.288v-7.736L.88 32.442a1.285 1.285 0 01-.78-.73 1.283 1.283 0 01.034-1.068l4.59-9.18v-2.847C4.725 8.351 13.077 0 23.343 0zm7.413 10.955c2.78 1.894 3.623 6.015 1.938 9.385-.395.79-.876 1.558-1.431 2.286a1.3 1.3 0 11-2.064-1.58c.454-.593.848-1.222 1.172-1.867.564-1.13.734-2.403.478-3.583-.232-1.072-.8-1.981-1.555-2.495-1.54-1.05-3.7-.334-5.792 1.991-.491.55-1.438.55-1.931 0-2.092-2.324-4.25-3.04-5.792-1.991-.755.514-1.324 1.424-1.555 2.495-.256 1.181-.086 2.454.478 3.583.954 1.907 2.448 3.514 4.305 4.84a17.68 17.68 0 003.53 1.963 17.255 17.255 0 004.651-2.829c.267-.228.603-.338.946-.307a1.294 1.294 0 011.193 1.397 1.287 1.287 0 01-.45.884 19.974 19.974 0 01-3.977 2.63 17.48 17.48 0 01-1.67.746l-.282.1a1.293 1.293 0 01-.82 0c-.912-.3-2.322-.94-3.864-1.935-2.515-1.623-4.579-3.715-5.885-6.328-1.685-3.37-.842-7.49 1.938-9.385 1.283-.874 2.797-1.14 4.371-.77 1.31.308 2.603 1.046 3.849 2.191l.288-.257c1.157-1 2.351-1.65 3.56-1.935l.277-.059c1.473-.278 2.886.007 4.094.83z"></path></svg>